<svg width="600" height="160" viewBox="0 0 600 160" fill="none" xmlns="http://www.w3.org/2000/svg">
  <rect width="600" height="160" fill="#0A0F1A" rx="16"/>
  <defs>
    <linearGradient id="g1" x1="0" y1="0" x2="0" y2="1"><stop offset="0%" stop-color="#F5DC7A"/><stop offset="100%" stop-color="#C9921A"/></linearGradient>
    <linearGradient id="g2" x1="0" y1="0" x2="1" y2="0"><stop offset="0%" stop-color="#6BB4FF"/><stop offset="100%" stop-color="#1A5FCC"/></linearGradient>
  </defs>
  <!-- 큐브 -->
  <polygon points="75,35 115,55 75,75 35,55" fill="url(#g1)"/>
  <polygon points="35,55 35,95 75,115 75,75" fill="url(#g2)" opacity="0.92"/>
  <polygon points="115,55 115,95 75,115 75,75" fill="#0A1628"/>
  <line x1="35" y1="55" x2="115" y2="55" stroke="rgba(255,255,255,0.18)" stroke-width="1"/>
  <line x1="75" y1="35" x2="75" y2="75" stroke="rgba(255,255,255,0.14)" stroke-width="1"/>
  <line x1="75" y1="75" x2="35" y2="55" stroke="rgba(255,255,255,0.08)" stroke-width="0.8"/>
  <line x1="75" y1="75" x2="115" y2="55" stroke="rgba(255,255,255,0.08)" stroke-width="0.8"/>
  <line x1="75" y1="75" x2="75" y2="115" stroke="rgba(255,255,255,0.08)" stroke-width="0.8"/>
  <text x="75" y="59" text-anchor="middle" dominant-baseline="central" font-family="Arial Black" font-weight="900" font-size="18" fill="#0A1628" opacity="0.85">N</text>
  <!-- 텍스트 -->
  <text x="140" y="72" font-family="Arial Black, sans-serif" font-weight="900" font-size="52" fill="#F1F5F9" letter-spacing="-1">N-KAI</text>
  <line x1="140" y1="90" x2="480" y2="90" stroke="#E8C55B" stroke-width="1" stroke-opacity="0.4"/>
  <text x="140" y="112" font-family="Arial, sans-serif" font-size="14" fill="#475569" letter-spacing="8">NEURIN  KAIROS  AI</text>
</svg>
