<svg width="640" height="200" viewBox="0 0 640 200" fill="none" xmlns="http://www.w3.org/2000/svg">
  <rect width="640" height="200" fill="#0A0F1A" rx="16"/>
  <rect x="0" y="0" width="640" height="3" rx="0" fill="url(#topbar)"/>
  <defs>
    <linearGradient id="g1" x1="0" y1="0" x2="0" y2="1"><stop offset="0%" stop-color="#F5DC7A"/><stop offset="100%" stop-color="#C9921A"/></linearGradient>
    <linearGradient id="g2" x1="0" y1="0" x2="1" y2="0"><stop offset="0%" stop-color="#6BB4FF"/><stop offset="100%" stop-color="#1A5FCC"/></linearGradient>
    <linearGradient id="topbar" x1="0" y1="0" x2="1" y2="0"><stop offset="0%" stop-color="#E8C55B"/><stop offset="50%" stop-color="#5AA8FF"/><stop offset="100%" stop-color="#7C5BF0"/></linearGradient>
  </defs>
  <polygon points="75,50 115,70 75,90 35,70" fill="url(#g1)"/>
  <polygon points="35,70 35,110 75,130 75,90" fill="url(#g2)" opacity="0.92"/>
  <polygon points="115,70 115,110 75,130 75,90" fill="#0A1628"/>
  <line x1="35" y1="70" x2="115" y2="70" stroke="rgba(255,255,255,0.18)" stroke-width="1"/>
  <line x1="75" y1="50" x2="75" y2="90" stroke="rgba(255,255,255,0.14)" stroke-width="1"/>
  <line x1="75" y1="90" x2="75" y2="130" stroke="rgba(255,255,255,0.08)" stroke-width="0.8"/>
  <text x="75" y="74" text-anchor="middle" dominant-baseline="central" font-family="Arial Black" font-weight="900" font-size="18" fill="#0A1628" opacity="0.85">N</text>
  <text x="140" y="86" font-family="Arial Black, sans-serif" font-weight="900" font-size="52" fill="#F1F5F9" letter-spacing="-1">N-KAI</text>
  <line x1="140" y1="104" x2="500" y2="104" stroke="#E8C55B" stroke-width="0.8" stroke-opacity="0.35"/>
  <text x="140" y="124" font-family="Arial, sans-serif" font-size="13" fill="#475569" letter-spacing="7">NEURIN  KAIROS  AI</text>
  <text x="140" y="158" font-family="Arial, sans-serif" font-size="12" fill="#E8C55B" opacity="0.7" letter-spacing="1" font-style="italic">Behavior First. Prediction Follows.</text>
  <text x="140" y="178" font-family="Arial, sans-serif" font-size="10" fill="#334155" letter-spacing="1">뉴린카이로스에이아이 주식회사  ·  172-87-03400</text>
</svg>
